<svg width="24" height="24" viewBox="0 0 24 24" fill="none" xmlns="http://www.w3.org/2000/svg">
<path d="M16.7268 21.684C16.5423 21.684 16.2809 21.648 15.9425 21.5761C15.6042 21.5042 15.3812 21.4441 15.2735 21.3957C14.8891 22.1978 14.3662 22.8275 13.7049 23.2847C13.0436 23.7419 12.3053 23.9706 11.4902 23.9706C10.6751 23.9706 9.91769 23.7179 9.21793 23.2126C8.51816 22.7072 8.02987 22.1015 7.75304 21.3957C7.27629 21.5882 6.78415 21.6845 6.27662 21.6845C5.12317 21.6845 4.13889 21.2312 3.32378 20.3248C2.50868 19.4184 2.10881 18.3475 2.12419 17.1122C2.10878 17.0643 2.10878 17.0161 2.12419 16.9678V16.8234C2.10878 16.7753 2.10878 16.7272 2.12419 16.679C2.1396 16.631 2.1396 16.5828 2.12419 16.5347C1.46288 16.0855 0.943818 15.5119 0.567019 14.8141C0.190196 14.1159 0.00178528 13.3617 0.00178528 12.5515C0.00178528 11.7414 0.20556 10.9553 0.613111 10.1932C1.02067 9.43118 1.60124 8.84962 2.35483 8.44855L2.2626 8.06352C2.17033 7.82288 2.12419 7.55015 2.12419 7.24534C2.09345 7.11699 2.09345 6.98062 2.12419 6.83624C2.10878 5.61698 2.50096 4.55012 3.30072 3.63568C4.10044 2.72123 5.09241 2.264 6.27662 2.264C6.78415 2.264 7.27629 2.36026 7.75304 2.55277C8.04525 1.83084 8.5297 1.22523 9.20639 0.735917C9.88306 0.246608 10.6443 0.00195312 11.4902 0.00195312C13.1819 0.00195312 14.443 0.852226 15.2735 2.55277C15.681 2.36026 16.1655 2.264 16.7268 2.264C17.8803 2.264 18.8607 2.71321 19.6682 3.61161C20.4756 4.51002 20.8947 5.58489 20.9255 6.83624C20.9101 6.93249 20.9025 7.06886 20.9025 7.24534L20.7641 8.06352C20.7334 8.20791 20.6873 8.33625 20.6257 8.44855C21.3177 8.78545 21.8791 9.31086 22.3097 10.0248C22.7403 10.7387 22.971 11.5769 23.0018 12.5395C22.9711 13.4379 22.7635 14.24 22.3789 14.9459C21.9945 15.6518 21.4869 16.1812 20.8564 16.5342C20.887 16.5983 20.9023 16.6465 20.9023 16.6786L20.9253 16.9673C20.8947 17.0152 20.8947 17.0634 20.9253 17.1117C20.8947 18.3951 20.4718 19.4781 19.6566 20.3605C18.8414 21.2428 17.8648 21.684 16.7267 21.684" fill="white"/>
<path d="M15.25 7.89422L9.69032 13.6697L7.77558 11.6483C7.49875 11.4076 7.22577 11.2873 6.95662 11.2873C6.68749 11.2873 6.39912 11.4076 6.09154 11.6483C5.86084 11.9852 5.74934 12.31 5.75704 12.6229C5.76471 12.9357 5.8839 13.1884 6.11461 13.3809L8.85983 16.2686C9.13666 16.5093 9.43656 16.6296 9.75953 16.6296C10.0825 16.6296 10.3362 16.5093 10.5208 16.2686H10.5439L16.8969 9.47662C17.4808 8.80676 17.0534 8.06071 16.8774 7.88512C16.7014 7.70954 15.9125 7.20924 15.25 7.89422Z" fill="black"/>
</svg>
