<svg width="29" height="29" viewBox="0 0 29 29" fill="none" xmlns="http://www.w3.org/2000/svg">
<path d="M14.5 20.5417L15.7083 18.1251V11.9118C17.7878 11.3717 19.3333 9.49516 19.3333 7.25008C19.3333 4.5845 17.1655 2.41675 14.5 2.41675C11.8344 2.41675 9.66663 4.5845 9.66663 7.25008C9.66663 9.49516 11.2121 11.3717 13.2916 11.9118V18.1251L14.5 20.5417ZM12.0833 7.25008C12.0833 5.91729 13.1672 4.83341 14.5 4.83341C15.8328 4.83341 16.9166 5.91729 16.9166 7.25008C16.9166 8.58287 15.8328 9.66675 14.5 9.66675C13.1672 9.66675 12.0833 8.58287 12.0833 7.25008Z" fill="white"/>
<path d="M19.6559 12.7637L19.0119 15.0933C22.1427 15.9585 24.1666 17.6224 24.1666 19.3334C24.1666 21.6195 20.1973 24.1667 14.5 24.1667C8.80267 24.1667 4.83329 21.6195 4.83329 19.3334C4.83329 17.6224 6.85725 15.9585 9.98925 15.0921L9.34521 12.7625C5.07133 13.9442 2.41663 16.4612 2.41663 19.3334C2.41663 23.3982 7.72483 26.5834 14.5 26.5834C21.2751 26.5834 26.5833 23.3982 26.5833 19.3334C26.5833 16.4612 23.9286 13.9442 19.6559 12.7637Z" fill="white"/>
</svg>
