<svg width="30" height="29" viewBox="0 0 30 29" fill="none" xmlns="http://www.w3.org/2000/svg">
<path d="M24.1696 4.83374L7.25291 4.83374C5.92012 4.83374 4.83624 5.91761 4.83624 7.25041L4.83624 13.2921H7.25291L7.25291 9.66707L14.9862 15.4671C15.1955 15.6238 15.4498 15.7084 15.7112 15.7084C15.9726 15.7084 16.227 15.6238 16.4362 15.4671L24.1696 9.66707L24.1696 20.5421L14.5029 20.5421V22.9587L24.1696 22.9587C25.5024 22.9587 26.5862 21.8749 26.5862 20.5421L26.5862 7.25041C26.5862 5.91761 25.5024 4.83374 24.1696 4.83374ZM15.7112 12.99L8.05766 7.25041L23.3648 7.25041L15.7112 12.99Z" fill="white"/>
<path d="M2.41962 14.5005L10.8779 14.5005V16.9172H2.41962L2.41962 14.5005ZM4.83628 18.1255H12.0863V20.5422H4.83628L4.83628 18.1255ZM8.46128 21.7505H13.2946V24.1672H8.46128L8.46128 21.7505Z" fill="white"/>
</svg>
