<svg width="36" height="38" viewBox="0 0 36 38" fill="none" xmlns="http://www.w3.org/2000/svg">
<path d="M35.1161 0.942993L32.9161 1.67633C29.1457 2.98632 25.1194 3.38832 21.1645 2.84966C17.0086 2.20471 12.7548 2.77782 8.91779 4.49966C6.88367 5.36581 5.0985 6.727 3.72483 8.45931C2.35115 10.1916 1.4326 12.24 1.05279 14.418C0.666449 16.5125 0.705969 18.6633 1.16899 20.7422C1.63202 22.8211 2.50906 24.7854 3.74779 26.518C3.63779 26.903 3.52779 27.288 3.43612 27.673C2.6915 30.8392 2.32229 34.0821 2.33612 37.3346H6.00279C6.17512 34.6723 6.53659 32.0257 7.08446 29.4147C9.62808 30.7882 12.4806 31.4887 15.3711 31.4497C18.067 31.4478 20.7351 30.9054 23.2178 29.8547C37.1694 23.8963 35.3361 4.07799 35.3361 3.25299L35.1161 0.942993ZM21.7878 26.4813C17.0028 28.5163 11.2828 28.168 8.07446 25.6563C8.6167 23.8432 9.3608 22.0967 10.2928 20.4497C11.0173 19.2642 11.8721 18.1635 12.8411 17.168C13.8313 16.1618 14.9465 15.2869 16.1595 14.5647C18.6658 13.066 21.4453 12.0813 24.3361 11.668V9.83466C21.0101 9.71952 17.7044 10.3982 14.6928 11.8147C11.6136 13.3172 9.00217 15.6306 7.13946 18.5063C6.4486 19.6046 5.83597 20.7502 5.30612 21.9347C4.45641 19.761 4.21555 17.3967 4.60946 15.0963C4.86754 13.4858 5.53144 11.9675 6.53858 10.6845C7.54572 9.40154 8.86295 8.39611 10.3661 7.76299C12.5581 6.73845 14.9499 6.2125 17.3695 6.22299C18.5061 6.22299 19.6245 6.33299 20.7978 6.42466C24.4724 6.89876 28.2032 6.68113 31.7978 5.78299C31.6694 10.843 30.7528 22.668 21.7878 26.4813Z" fill="#FF0000"/>
</svg>
