<svg width="30" height="30" viewBox="0 0 30 30" fill="none" xmlns="http://www.w3.org/2000/svg">
<path d="M14.5028 2.41797C7.84002 2.41797 2.41943 7.83855 2.41943 14.5013C2.41943 21.164 7.84002 26.5846 14.5028 26.5846C21.1655 26.5846 26.5861 21.164 26.5861 14.5013C26.5861 7.83855 21.1655 2.41797 14.5028 2.41797ZM14.5028 24.168C9.17281 24.168 4.8361 19.8313 4.8361 14.5013C4.8361 9.17134 9.17281 4.83463 14.5028 4.83463C19.8327 4.83463 24.1694 9.17134 24.1694 14.5013C24.1694 19.8313 19.8327 24.168 14.5028 24.168Z" fill="white"/>
<path d="M15.7111 8.45972H13.2944L13.2944 15.0016L17.2735 18.9807L18.982 17.2721L15.7111 14.0011V8.45972Z" fill="white"/>
</svg>
