<svg width="43" height="40" viewBox="0 0 43 40" fill="none" xmlns="http://www.w3.org/2000/svg">
<path d="M37.8029 8.40134H31.5029V4.20134C31.5029 1.88504 29.6192 0.00134277 27.3029 0.00134277L14.7029 0.00134277C12.3866 0.00134277 10.5029 1.88504 10.5029 4.20134L10.5029 8.40134L4.20293 8.40134C1.88663 8.40134 0.00292969 10.285 0.00292969 12.6013L0.00292969 35.7013C0.00292969 38.0176 1.88663 39.9013 4.20293 39.9013L37.8029 39.9013C40.1192 39.9013 42.0029 38.0176 42.0029 35.7013L42.0029 12.6013C42.0029 10.285 40.1192 8.40134 37.8029 8.40134ZM27.3029 4.20134V8.40134L14.7029 8.40134L14.7029 4.20134L27.3029 4.20134ZM12.6029 12.6013L37.8029 12.6013V18.9013L4.20293 18.9013L4.20293 12.6013L12.6029 12.6013ZM4.20293 35.7013L4.20293 23.1013L16.8029 23.1013V27.3013H25.2029V23.1013L37.8029 23.1013L37.805 35.7013L4.20293 35.7013Z" fill="#FF0000"/>
</svg>
