<svg width="29" height="29" viewBox="0 0 29 29" fill="none" xmlns="http://www.w3.org/2000/svg">
<path d="M19.9375 9.66672C19.9375 11.4792 19.3333 13.8959 16.4333 14.8626C17.2792 12.8084 17.4 10.7542 16.7958 8.82089C15.95 6.28339 13.1708 4.35005 11.2375 3.26256C10.7542 2.90006 9.90833 3.38339 10.0292 4.10839C10.0292 5.43756 9.66667 7.37089 7.6125 9.42506C4.95417 12.0834 3.625 14.8626 3.625 17.5209C3.625 21.0251 6.04167 25.3751 10.875 25.3751C6.04167 20.5417 9.66667 16.3126 9.66667 16.3126C10.6333 23.4417 15.7083 25.3751 18.125 25.3751C20.1792 25.3751 24.1667 23.9251 24.1667 17.6417C24.1667 13.8959 22.5958 10.9959 21.2667 9.30422C20.9042 8.70005 20.0583 9.06255 19.9375 9.66672Z" fill="white"/>
</svg>
