<svg width="29" height="29" viewBox="0 0 29 29" fill="none" xmlns="http://www.w3.org/2000/svg">
<path d="M6.04167 24.1666C6.04167 24.8076 6.29628 25.4223 6.74949 25.8755C7.2027 26.3287 7.81739 26.5833 8.45833 26.5833H20.5417C21.1826 26.5833 21.7973 26.3287 22.2505 25.8755C22.7037 25.4223 22.9583 24.8076 22.9583 24.1666V9.66663H25.375V7.24996H20.5417V4.83329C20.5417 4.19235 20.2871 3.57766 19.8338 3.12445C19.3806 2.67124 18.7659 2.41663 18.125 2.41663H10.875C10.2341 2.41663 9.61937 2.67124 9.16616 3.12445C8.71295 3.57766 8.45833 4.19235 8.45833 4.83329V7.24996H3.625V9.66663H6.04167V24.1666ZM10.875 4.83329H18.125V7.24996H10.875V4.83329ZM9.66667 9.66663H20.5417V24.1666H8.45833V9.66663H9.66667Z" fill="white"/>
<path d="M10.875 12.0834H13.2917V21.75H10.875V12.0834ZM15.7083 12.0834H18.125V21.75H15.7083V12.0834Z" fill="white"/>
</svg>
